<svg xmlns="http://www.w3.org/2000/svg"  viewBox="0 0 100 100" width="100px" height="100px" baseProfile="basic"><path fill="#c7ede6" d="M87.215,56.71C88.35,54.555,89,52.105,89,49.5c0-6.621-4.159-12.257-10.001-14.478 C78.999,35.015,79,35.008,79,35c0-11.598-9.402-21-21-21c-9.784,0-17.981,6.701-20.313,15.757C36.211,29.272,34.638,29,33,29 c-7.692,0-14.023,5.793-14.89,13.252C12.906,43.353,9,47.969,9,53.5C9,59.851,14.149,65,20.5,65c0.177,0,0.352-0.012,0.526-0.022 C21.022,65.153,21,65.324,21,65.5C21,76.822,30.178,86,41.5,86c6.437,0,12.175-2.972,15.934-7.614C59.612,80.611,62.64,82,66,82 c4.65,0,8.674-2.65,10.666-6.518C77.718,75.817,78.837,76,80,76c6.075,0,11-4.925,11-11C91,61.689,89.53,58.727,87.215,56.71z"/><path fill="#fff" d="M28.5,75h-10c-0.276,0-0.5-0.224-0.5-0.5s0.224-0.5,0.5-0.5h10c0.276,0,0.5,0.224,0.5,0.5 S28.777,75,28.5,75z M31.5,75h-1c-0.276,0-0.5-0.224-0.5-0.5s0.224-0.5,0.5-0.5h1c0.276,0,0.5,0.224,0.5,0.5S31.777,75,31.5,75z M36.491,77H27.5c-0.276,0-0.5-0.224-0.5-0.5s0.224-0.5,0.5-0.5h8.991c0.276,0,0.5,0.224,0.5,0.5S36.767,77,36.491,77z M25.5,77h-1 c-0.276,0-0.5-0.224-0.5-0.5s0.224-0.5,0.5-0.5h1c0.276,0,0.5,0.224,0.5,0.5S25.777,77,25.5,77z M22.5,77h-2 c-0.276,0-0.5-0.224-0.5-0.5s0.224-0.5,0.5-0.5h2c0.276,0,0.5,0.224,0.5,0.5S22.777,77,22.5,77z M28.5,79h-2 c-0.276,0-0.5-0.224-0.5-0.5s0.224-0.5,0.5-0.5h2c0.276,0,0.5,0.224,0.5,0.5S28.776,79,28.5,79z M31.5,70c-0.177,0-0.823,0-1,0 c-0.276,0-0.5,0.224-0.5,0.5s0.224,0.5,0.5,0.5c0.177,0,0.823,0,1,0c0.276,0,0.5-0.224,0.5-0.5S31.776,70,31.5,70z M31.5,72 c-0.177,0-4.823,0-5,0c-0.276,0-0.5,0.224-0.5,0.5s0.224,0.5,0.5,0.5c0.177,0,4.823,0,5,0c0.276,0,0.5-0.224,0.5-0.5 S31.776,72,31.5,72z M36.5,74c-0.177,0-2.823,0-3,0c-0.276,0-0.5,0.224-0.5,0.5s0.224,0.5,0.5,0.5c0.177,0,2.823,0,3,0 c0.276,0,0.5-0.224,0.5-0.5S36.776,74,36.5,74z"/><path fill="#fff" d="M69.5,23h-10c-0.276,0-0.5-0.224-0.5-0.5s0.224-0.5,0.5-0.5h10c0.276,0,0.5,0.224,0.5,0.5 S69.776,23,69.5,23z M73.5,23h-2c-0.276,0-0.5-0.224-0.5-0.5s0.224-0.5,0.5-0.5h2c0.276,0,0.5,0.224,0.5,0.5S73.776,23,73.5,23z M78.5,25h-10c-0.276,0-0.5-0.224-0.5-0.5s0.224-0.5,0.5-0.5h10c0.276,0,0.5,0.224,0.5,0.5S78.777,25,78.5,25z M66.5,25h-1 c-0.276,0-0.5-0.224-0.5-0.5s0.224-0.5,0.5-0.5h1c0.276,0,0.5,0.224,0.5,0.5S66.776,25,66.5,25z M63.47,25H61.5 c-0.276,0-0.5-0.224-0.5-0.5s0.224-0.5,0.5-0.5h1.97c0.276,0,0.5,0.224,0.5,0.5S63.746,25,63.47,25z M72.5,21h-5 c-0.276,0-0.5-0.224-0.5-0.5s0.224-0.5,0.5-0.5h5c0.276,0,0.5,0.224,0.5,0.5S72.777,21,72.5,21z M69.5,27h-2 c-0.276,0-0.5-0.224-0.5-0.5s0.224-0.5,0.5-0.5h2c0.276,0,0.5,0.224,0.5,0.5S69.776,27,69.5,27z"/><path fill="#fdfcef" d="M40.594,28.433c0,0,1.567,0,3.5,0s3.5-1.567,3.5-3.5c0-1.781-1.335-3.234-3.055-3.455 c0.028-0.179,0.055-0.358,0.055-0.545c0-1.933-1.567-3.5-3.5-3.5c-1.032,0-1.95,0.455-2.59,1.165 c-0.384-1.808-1.987-3.165-3.91-3.165c-2.209,0-4,1.791-4,4c0,0.191,0.03,0.374,0.056,0.558c-0.428-0.344-0.964-0.558-1.556-0.558 c-1.228,0-2.245,0.887-2.455,2.055c-0.179-0.028-0.358-0.055-0.545-0.055c-1.933,0-3.5,1.567-3.5,3.5s1.567,3.5,3.5,3.5 s7.5,0,7.5,0v0.5h7V28.433z"/><path fill="#472b29" d="M42.344,23.933c-0.138,0-0.25-0.112-0.25-0.25c0-1.223,0.995-2.218,2.218-2.218 c0.034,0.009,0.737-0.001,1.244,0.136c0.133,0.036,0.212,0.173,0.176,0.306c-0.036,0.134-0.173,0.213-0.306,0.176 c-0.444-0.12-1.1-0.12-1.113-0.118c-0.948,0-1.719,0.771-1.719,1.718C42.594,23.821,42.482,23.933,42.344,23.933z M35.594,27.933 c-0.276,0-0.5,0.224-0.5,0.5s0.224,0.5,0.5,0.5s0.5-0.224,0.5-0.5S35.87,27.933,35.594,27.933z"/><path fill="#472b29" d="M44.094,28.933h-3.5c-0.276,0-0.5-0.224-0.5-0.5s0.224-0.5,0.5-0.5h3.5c1.654,0,3-1.346,3-3 c0-1.496-1.125-2.768-2.618-2.959c-0.134-0.018-0.255-0.088-0.336-0.196s-0.115-0.244-0.094-0.377 c0.023-0.154,0.048-0.308,0.048-0.468c0-1.654-1.346-3-3-3c-0.85,0-1.638,0.355-2.219,1c-0.125,0.139-0.321,0.198-0.5,0.148 c-0.182-0.049-0.321-0.195-0.36-0.379c-0.341-1.604-1.78-2.769-3.421-2.769c-1.93,0-3.5,1.57-3.5,3.5 c0,0.143,0.021,0.28,0.041,0.418c0.029,0.203-0.063,0.438-0.242,0.54s-0.396,0.118-0.556-0.01 c-0.365-0.293-0.794-0.448-1.243-0.448c-0.966,0-1.792,0.691-1.963,1.644c-0.048,0.267-0.296,0.446-0.569,0.405 c-0.154-0.024-0.308-0.049-0.468-0.049c-1.654,0-3,1.346-3,3s1.346,3,3,3h7.5c0.276,0,0.5,0.224,0.5,0.5s-0.224,0.5-0.5,0.5h-7.5 c-2.206,0-4-1.794-4-4s1.794-4,4-4c0.059,0,0.116,0.002,0.174,0.006c0.414-1.186,1.537-2.006,2.826-2.006 c0.349,0,0.689,0.061,1.011,0.18c0.165-2.333,2.115-4.18,4.489-4.18c1.831,0,3.466,1.127,4.153,2.774 c0.68-0.498,1.502-0.774,2.347-0.774c2.206,0,4,1.794,4,4c0,0.048-0.001,0.095-0.004,0.142c1.743,0.448,3.004,2.027,3.004,3.858 C48.094,27.139,46.3,28.933,44.094,28.933z"/><path fill="#472b29" d="M38.594,27.933c-0.159,0-0.841,0-1,0c-0.276,0-0.5,0.224-0.5,0.5s0.224,0.5,0.5,0.5 c0.159,0,0.841,0,1,0c0.276,0,0.5-0.224,0.5-0.5S38.87,27.933,38.594,27.933z"/><path fill="#9898ad" d="M56.708,41.194c1.024,0.453,1.81,1.104,2.357,1.95c0.547,0.848,0.819,1.855,0.819,3.018 c0,1.151-0.273,2.152-0.819,3.008c-0.546,0.855-1.332,1.509-2.357,1.964c-1.023,0.453-2.226,0.68-3.608,0.68h-3.596v4.584h-2.961 V40.513H53.1C54.481,40.513,55.684,40.74,56.708,41.194z M55.9,48.5c0.668-0.545,1.003-1.323,1.003-2.337 c0-1.013-0.335-1.792-1.003-2.336c-0.668-0.544-1.647-0.817-2.937-0.817h-3.46v6.308h3.46C54.254,49.316,55.232,49.045,55.9,48.5 z M71.211,45.425c0.948,0.854,1.423,2.144,1.423,3.869v7.102h-2.687l-0.012-1.085c-0.182,0.182-0.834,0.544-1.479,0.825 c-0.646,0.279-1.423,0.419-2.333,0.419c-0.912,0-1.707-0.156-2.391-0.466c-0.683-0.309-1.211-0.741-1.582-1.293 c-0.373-0.552-0.558-1.176-0.558-1.872c0-1.09,0.405-1.964,1.219-2.621c0.812-0.658,2.09-0.987,3.837-0.987h3.142v-0.181 c0-0.847-0.254-1.498-0.762-1.952c-0.509-0.454-1.264-0.68-2.266-0.68c-0.683,0-1.354,0.107-2.015,0.317 c-0.66,0.212-1.219,0.508-1.674,0.885l-1.115-2.064c0.637-0.485,1.404-0.855,2.299-1.112c0.896-0.257,1.845-0.385,2.846-0.385 C68.892,44.144,70.262,44.571,71.211,45.425z M69.788,52.608v-1.407h-2.937c-1.64,0-2.459,0.537-2.459,1.611 c0,0.516,0.301,1.679,2.322,1.679C68.659,54.489,69.56,53.212,69.788,52.608z M81.74,57.374 c-0.532,1.315-1.731,3.453-4.691,3.583c-0.606,0.027-1.206-0.098-1.798-0.294c-0.593-0.196-1.078-0.469-1.457-0.817l1.138-2.088 c0.274,0.257,0.596,0.461,0.968,0.612c0.373,0.151,0.748,0.227,1.127,0.227c0.501,0,0.914-0.129,1.24-0.386 c0.327-0.257,0.626-0.688,0.9-1.293l0.204-0.476L74.067,44.28h2.959l3.825,8.964l3.848-8.964h2.733L81.74,57.374z"/><path fill="#472b29" d="M76.886,61.46c-0.55,0-1.139-0.106-1.792-0.323c-0.655-0.217-1.206-0.528-1.638-0.923 c-0.169-0.155-0.211-0.406-0.101-0.608l1.139-2.087c0.073-0.136,0.206-0.23,0.359-0.254c0.151-0.025,0.309,0.023,0.421,0.129 c0.229,0.214,0.503,0.387,0.813,0.513c0.7,0.286,1.442,0.25,1.869-0.088c0.261-0.205,0.514-0.577,0.754-1.106l0.115-0.269 L73.608,44.48c-0.067-0.154-0.053-0.333,0.04-0.474c0.092-0.141,0.249-0.226,0.418-0.226h2.959c0.2,0,0.381,0.12,0.46,0.304 l3.366,7.889l3.389-7.89c0.078-0.184,0.259-0.303,0.459-0.303h2.732c0.169,0,0.326,0.085,0.418,0.226 c0.093,0.141,0.107,0.319,0.041,0.473l-5.689,13.087c-1.002,2.476-2.728,3.784-5.13,3.89 C77.011,61.459,76.948,61.46,76.886,61.46z M74.434,59.717c0.275,0.189,0.602,0.348,0.975,0.471 c0.61,0.203,1.15,0.292,1.619,0.269c2.006-0.088,3.396-1.158,4.249-3.271c0.002-0.004,0.004-0.008,0.005-0.012l5.388-12.394 h-1.641l-3.719,8.661c-0.078,0.184-0.259,0.303-0.459,0.303c0,0,0,0-0.001,0c-0.199,0-0.38-0.12-0.459-0.304l-3.695-8.66H74.83 l4.999,11.463c0.056,0.126,0.056,0.271,0.001,0.397l-0.205,0.476c-0.314,0.696-0.657,1.18-1.05,1.488 c-0.712,0.562-1.832,0.648-2.863,0.229c-0.221-0.09-0.428-0.197-0.621-0.321L74.434,59.717z M66.123,57.055 c-0.977,0-1.851-0.172-2.597-0.51c-0.766-0.346-1.368-0.841-1.791-1.469c-0.426-0.63-0.643-1.354-0.643-2.15 c0-1.244,0.472-2.256,1.403-3.01c0.913-0.739,2.271-1.098,4.151-1.098h2.627c-0.052-0.544-0.243-0.958-0.58-1.261 c-0.411-0.367-1.062-0.553-1.933-0.553c-0.624,0-1.251,0.099-1.864,0.293c-0.595,0.192-1.103,0.459-1.506,0.793 c-0.115,0.094-0.265,0.134-0.415,0.105c-0.146-0.028-0.273-0.121-0.344-0.253l-1.115-2.064c-0.117-0.217-0.06-0.486,0.137-0.636 c0.682-0.52,1.511-0.921,2.464-1.194c0.936-0.269,1.939-0.404,2.983-0.404c1.909,0,3.404,0.474,4.443,1.409h0.001 c1.054,0.949,1.589,2.376,1.589,4.24v7.102c0,0.276-0.224,0.5-0.5,0.5h-2.688c-0.273,0-0.497-0.22-0.5-0.494l-0.002-0.187 c-0.286,0.151-0.579,0.288-0.79,0.38C67.948,56.9,67.097,57.055,66.123,57.055z M66.647,49.816c-1.619,0-2.805,0.294-3.522,0.875 c-0.694,0.562-1.032,1.292-1.032,2.233c0,0.602,0.154,1.122,0.472,1.591c0.318,0.473,0.78,0.849,1.374,1.117 c0.616,0.28,1.352,0.421,2.185,0.421c0.836,0,1.555-0.127,2.135-0.378c0.71-0.31,1.23-0.627,1.322-0.718 c0.143-0.142,0.358-0.185,0.543-0.109c0.186,0.076,0.31,0.255,0.312,0.456l0.007,0.59h1.693v-6.602 c0-1.569-0.424-2.745-1.259-3.497c-0.85-0.765-2.119-1.152-3.774-1.152c-0.95,0-1.861,0.123-2.708,0.365 c-0.674,0.193-1.272,0.457-1.785,0.786l0.633,1.171c0.398-0.252,0.851-0.46,1.352-0.622c0.713-0.226,1.442-0.341,2.169-0.341 c1.124,0,1.998,0.271,2.599,0.807c0.616,0.552,0.929,1.334,0.929,2.326v0.181c0,0.276-0.224,0.5-0.5,0.5H66.647z M49.504,56.898 h-2.961c-0.276,0-0.5-0.224-0.5-0.5V40.513c0-0.276,0.224-0.5,0.5-0.5H53.1c1.445,0,2.728,0.244,3.811,0.725l0,0 c1.11,0.491,1.977,1.209,2.575,2.136c0.597,0.925,0.898,2.031,0.898,3.289c0,1.242-0.302,2.344-0.896,3.277 c-0.599,0.935-1.465,1.659-2.576,2.152c-1.084,0.48-2.366,0.723-3.812,0.723h-3.096v4.084 C50.004,56.674,49.78,56.898,49.504,56.898z M47.043,55.898h1.961v-4.084c0-0.276,0.224-0.5,0.5-0.5H53.1 c1.305,0,2.451-0.214,3.406-0.637c0.929-0.412,1.648-1.01,2.139-1.776c0.49-0.769,0.739-1.69,0.739-2.738 c0-1.062-0.248-1.986-0.738-2.747c-0.491-0.76-1.211-1.353-2.14-1.764c0,0,0,0-0.001,0c-0.955-0.424-2.101-0.639-3.405-0.639 h-6.057V55.898z M66.711,54.99c-1.021,0-1.79-0.271-2.284-0.807c-0.483-0.524-0.535-1.134-0.535-1.372 c0-0.963,0.514-2.11,2.959-2.11h2.938c0.276,0,0.5,0.224,0.5,0.5v1.407c0,0.061-0.011,0.121-0.032,0.177 c-0.31,0.819-1.404,2.205-3.542,2.205C66.713,54.99,66.712,54.99,66.711,54.99z M66.851,51.701c-1.959,0-1.959,0.807-1.959,1.11 c0,0.121,0.026,0.429,0.271,0.694c0.293,0.317,0.828,0.485,1.549,0.485c0.001,0,0.002,0,0.003,0c1.764,0,2.428-1.169,2.574-1.484 v-0.805H66.851z M69.788,52.608h0.01H69.788z M52.963,49.817h-3.46c-0.276,0-0.5-0.224-0.5-0.5v-6.308c0-0.276,0.224-0.5,0.5-0.5 h3.46c1.401,0,2.495,0.312,3.252,0.929c0.788,0.642,1.188,1.559,1.188,2.724s-0.399,2.083-1.187,2.725 C55.461,49.503,54.366,49.816,52.963,49.817z M50.003,48.817h2.96c1.167-0.001,2.048-0.238,2.62-0.705l0,0 c0.552-0.45,0.819-1.088,0.819-1.95s-0.268-1.5-0.818-1.949c-0.574-0.467-1.456-0.704-2.621-0.704h-2.96V48.817z"/><path fill="#fdfcef" d="M79.176,74.561v0.5h3v-0.5c0,0,4.242,0,5.5,0c2.485,0,4.5-2.015,4.5-4.5 c0-2.333-1.782-4.229-4.055-4.455c0.022-0.181,0.055-0.358,0.055-0.545c0-2.485-2.015-4.5-4.5-4.5 c-1.438,0-2.703,0.686-3.527,1.736c-0.14-2.636-2.302-4.736-4.973-4.736c-2.761,0-5,2.239-5,5c0,0.446,0.077,0.87,0.187,1.282 c-0.642-0.777-1.601-1.282-2.687-1.282c-1.781,0-3.234,1.335-3.455,3.055c-0.181-0.022-0.358-0.055-0.545-0.055 c-2.485,0-4.5,2.015-4.5,4.5s2.015,4.5,4.5,4.5c2.485,0,9.5,0,9.5,0H79.176z"/><path fill="#472b29" d="M75.176,57.061c-3.033,0-5.5,2.467-5.5,5.5c0,0.016,0,0.031,0,0.047 c-0.602-0.355-1.29-0.547-2-0.547c-1.831,0-3.411,1.261-3.858,3.005c-0.047-0.003-0.094-0.005-0.142-0.005c-2.757,0-5,2.243-5,5 c0,2.757,2.243,5,5,5h15.5c0.276,0,0.5-0.224,0.5-0.5s-0.224-0.5-0.5-0.5h-15.5c-2.206,0-4-1.794-4-4s1.794-4,4-4 c0.117,0,0.23,0.017,0.343,0.032l0.141,0.019c0.021,0.003,0.041,0.004,0.062,0.004c0.246,0,0.462-0.185,0.495-0.437 c0.191-1.493,1.463-2.618,2.959-2.618c0.885,0,1.723,0.401,2.301,1.1c0.098,0.118,0.241,0.182,0.386,0.182 c0.078,0,0.156-0.018,0.228-0.056c0.209-0.107,0.314-0.346,0.254-0.573c-0.115-0.435-0.169-0.801-0.169-1.153 c0-2.481,2.019-4.5,4.5-4.5c2.381,0,4.347,1.872,4.474,4.263c0.011,0.208,0.15,0.387,0.349,0.45 c0.05,0.016,0.101,0.024,0.152,0.024c0.15,0,0.296-0.069,0.392-0.192c0.771-0.982,1.912-1.545,3.133-1.545c2.206,0,4,1.794,4,4 c0,0.117-0.017,0.23-0.032,0.343l-0.019,0.141c-0.016,0.134,0.022,0.268,0.106,0.373c0.084,0.105,0.207,0.172,0.34,0.185 c2.056,0.205,3.605,1.907,3.605,3.958c0,2.206-1.794,4-4,4h-5.5c-0.276,0-0.5,0.224-0.5,0.5s0.224,0.5,0.5,0.5h5.5 c2.757,0,5-2.243,5-5c0-2.397-1.689-4.413-4.003-4.877c0.002-0.041,0.003-0.082,0.003-0.123c0-2.757-2.243-5-5-5 c-1.176,0-2.293,0.416-3.183,1.164C79.895,58.821,77.731,57.061,75.176,57.061L75.176,57.061z"/><path fill="#472b29" d="M73.676,64.061c-1.403,0-2.609,0.999-2.913,2.341c-0.367-0.222-0.786-0.341-1.212-0.341 c-1.202,0-2.198,0.897-2.353,2.068c-0.203-0.046-0.396-0.068-0.585-0.068c-1.529,0-2.811,1.2-2.918,2.732 c-0.009,0.138,0.095,0.258,0.232,0.268c0.006,0,0.012,0,0.018,0c0.13,0,0.24-0.101,0.249-0.232 c0.089-1.271,1.151-2.268,2.419-2.268c0.229,0,0.47,0.042,0.738,0.127c0.022,0.007,0.045,0.01,0.067,0.01 c0.055,0,0.11-0.02,0.156-0.054c0.064-0.046,0.102-0.128,0.102-0.208c0-1.034,0.841-1.875,1.875-1.875 c0.447,0,0.885,0.168,1.231,0.473c0.047,0.041,0.106,0.063,0.165,0.063c0.032,0,0.063-0.006,0.093-0.019 c0.088-0.035,0.148-0.117,0.155-0.212c0.104-1.293,1.193-2.305,2.481-2.305c0.208,0,0.425,0.034,0.682,0.107 c0.023,0.007,0.047,0.01,0.07,0.01c0.109,0,0.207-0.073,0.239-0.182c0.038-0.133-0.039-0.271-0.172-0.309 C74.193,64.101,73.932,64.061,73.676,64.061L73.676,64.061z M87.559,65.561c-1.326,0-2.508,0.897-2.874,2.182 c-0.038,0.133,0.039,0.271,0.172,0.309c0.024,0.006,0.047,0.009,0.069,0.009c0.109,0,0.209-0.072,0.24-0.182 c0.305-1.07,1.289-1.818,2.393-1.818c0.117,0,0.23,0.014,0.342,0.029c0.012,0.002,0.023,0.003,0.035,0.003 c0.121,0,0.229-0.092,0.246-0.217c0.019-0.137-0.077-0.263-0.214-0.281C87.834,65.577,87.698,65.561,87.559,65.561L87.559,65.561z"/><g><path fill="#eb7897" d="M37.766,40.252l-3.794,4.237c-1.42-1.363-3.351-2.192-5.475-2.192 c-2.703,0-6.735,3.407-6.735,3.407l-4.566-3.078c2.453-3.623,6.599-6.008,11.301-6.008C32.075,36.617,35.335,38.003,37.766,40.252 z"/></g><g><path fill="#83c9f6" d="M42.127,49.111v1.136c0,3.896-1.636,7.417-4.259,9.893l-4.271-3.794 c0.875-0.738,1.59-1.647,2.09-2.692h-6.054v-4.543H42.127z"/></g><g><path fill="#72c8ad" d="M34.219,56.094c-1.381,1.154-3.781,2.104-5.721,2.104c-3.368,0-6.037-1.647-7.195-4.604 l-4.375,3.125c2.258,4.405,6.28,7.158,11.57,7.158c3.631,0,7.132-1.406,9.575-3.72L34.219,56.094z"/></g><g><path fill="#f7e1ac" d="M21.905,45.801l-4.709-3.176c-1.471,2.176-2.328,4.799-2.328,7.621c0,2.238,1,4.505,1.955,6.368 l4.479-2.812c-0.353-0.9-0.755-2.532-0.755-3.555C20.547,48.6,21.048,47.07,21.905,45.801z"/></g><path fill="#472b29" d="M43.059,49.137c0-0.387-0.313-0.7-0.7-0.7H29.865c-0.387,0-0.7,0.313-0.7,0.7v4.543 c0,0.387,0.313,0.7,0.7,0.7h4.841c-0.371,0.536-0.816,1.024-1.329,1.457l0.001,0.001c-1.302,1.087-2.952,1.686-4.649,1.686 c-3.006,0-5.656-1.808-6.752-4.605l-0.001,0c-0.33-0.842-0.497-1.732-0.497-2.646c0-1.453,0.428-2.854,1.238-4.053l-0.02-0.013 c0.028-0.028,0.065-0.045,0.088-0.078c1.346-1.945,3.568-3.106,5.944-3.106c1.876,0,3.648,0.709,4.99,1.997 c0.137,0.132,0.326,0.197,0.511,0.195c0.19-0.007,0.369-0.091,0.495-0.233l3.793-4.237c0.255-0.285,0.234-0.721-0.046-0.98 c-2.664-2.464-6.124-3.821-9.744-3.821c-4.761,0-9.203,2.361-11.881,6.316l0.58,0.393l-0.58-0.392 c-1.602,2.37-2.448,5.141-2.448,8.013c0,2.3,0.529,4.497,1.572,6.531l0.001,0c2.466,4.81,7.354,7.799,12.757,7.799 c3.683,0,7.183-1.395,9.855-3.926l-0.003-0.003c2.845-2.686,4.477-6.477,4.477-10.4V49.137z M28.729,37.344 c3.037,0,5.949,1.058,8.275,2.994l-2.858,3.193c-1.524-1.235-3.421-1.908-5.417-1.908c-2.685,0-5.195,1.255-6.82,3.359 l-3.713-2.183C20.63,39.384,24.537,37.344,28.729,37.344z M15.8,50.273c0-2.359,0.638-4.638,1.841-6.64l3.702,2.176 c-0.816,1.347-1.265,2.876-1.265,4.464c0,1.09,0.2,2.152,0.595,3.158l0,0c0.015,0.038,0.037,0.072,0.053,0.11l-3.63,2.351 C16.245,54.133,15.8,52.247,15.8,50.273z M17.561,56.782l3.602-2.333c1.507,2.746,4.362,4.475,7.565,4.475 c2.005,0,3.955-0.703,5.5-1.976l3.002,3.048c-2.358,2.064-5.352,3.206-8.502,3.206C24.091,63.202,19.877,60.758,17.561,56.782z M41.659,50.273c0,3.378-1.352,6.635-3.704,9.032l-2.992-3.037c0.651-0.676,1.183-1.441,1.586-2.285 c0.104-0.217,0.089-0.472-0.039-0.675c-0.128-0.204-0.352-0.327-0.592-0.327h-5.354v-3.143h11.094V50.273z"/></svg>