<svg xmlns="http://www.w3.org/2000/svg"  viewBox="0 0 100 100" width="100px" height="100px"><path fill="#c7ede6" d="M87.215,56.71C88.35,54.555,89,52.105,89,49.5c0-6.621-4.159-12.257-10.001-14.478	C78.999,35.015,79,35.008,79,35c0-11.598-9.402-21-21-21c-9.784,0-17.981,6.701-20.313,15.757C36.211,29.272,34.638,29,33,29	c-7.692,0-14.023,5.793-14.89,13.252C12.906,43.353,9,47.969,9,53.5C9,59.851,14.149,65,20.5,65c0.177,0,0.352-0.012,0.526-0.022	C21.022,65.153,21,65.324,21,65.5C21,76.822,30.178,86,41.5,86c6.437,0,12.175-2.972,15.934-7.614C59.612,80.611,62.64,82,66,82	c4.65,0,8.674-2.65,10.666-6.518C77.718,75.817,78.837,76,80,76c6.075,0,11-4.925,11-11C91,61.689,89.53,58.727,87.215,56.71z"/><path fill="#fdfcef" d="M80.875,41.5c0,0,3.64,0,6.125,0s4.5-2.015,4.5-4.5c0-2.333-1.782-4.229-4.055-4.455	C87.467,32.364,87.5,32.187,87.5,32c0-2.485-2.015-4.5-4.5-4.5c-1.438,0-2.703,0.686-3.527,1.736C79.333,26.6,77.171,24.5,74.5,24.5	c-2.761,0-5,2.239-5,5c0,0.446,0.077,0.87,0.187,1.282C69.045,30.005,68.086,29.5,67,29.5c-1.781,0-3.234,1.335-3.455,3.055	C63.364,32.533,63.187,32.5,63,32.5c-2.485,0-4.5,2.015-4.5,4.5s2.015,4.5,4.5,4.5s9.5,0,9.5,0h5.375V42h3V41.5z"/><path fill="#472b29" d="M74.5,24c-3.033,0-5.5,2.467-5.5,5.5c0,0.016,0,0.031,0,0.047C68.398,29.192,67.71,29,67,29	c-1.831,0-3.411,1.261-3.858,3.005C63.095,32.002,63.048,32,63,32c-2.757,0-5,2.243-5,5s2.243,5,5,5h14.875	c0.276,0,0.5-0.224,0.5-0.5s-0.224-0.5-0.5-0.5H63c-2.206,0-4-1.794-4-4s1.794-4,4-4c0.117,0,0.23,0.017,0.343,0.032l0.141,0.019	c0.021,0.003,0.041,0.004,0.062,0.004c0.246,0,0.462-0.185,0.495-0.437C64.232,31.125,65.504,30,67,30	c0.885,0,1.723,0.401,2.301,1.1c0.098,0.118,0.241,0.182,0.386,0.182c0.078,0,0.156-0.018,0.228-0.056	c0.209-0.107,0.314-0.346,0.254-0.573C70.054,30.218,70,29.852,70,29.5c0-2.481,2.019-4.5,4.5-4.5c2.381,0,4.347,1.872,4.474,4.263	c0.011,0.208,0.15,0.387,0.349,0.45c0.05,0.016,0.101,0.024,0.152,0.024c0.15,0,0.296-0.069,0.392-0.192	C80.638,28.563,81.779,28,83,28c2.206,0,4,1.794,4,4c0,0.117-0.017,0.23-0.032,0.343l-0.019,0.141	c-0.016,0.134,0.022,0.268,0.106,0.373s0.207,0.172,0.34,0.185C89.451,33.247,91,34.949,91,37c0,2.206-1.794,4-4,4h-6.125	c-0.276,0-0.5,0.224-0.5,0.5s0.224,0.5,0.5,0.5H87c2.757,0,5-2.243,5-5c0-2.397-1.689-4.413-4.003-4.877	C87.999,32.082,88,32.041,88,32c0-2.757-2.243-5-5-5c-1.176,0-2.293,0.416-3.183,1.164C79.219,25.76,77.055,24,74.5,24L74.5,24z"/><path fill="#472b29" d="M86.883,32.5c-1.326,0-2.508,0.897-2.874,2.182c-0.038,0.133,0.039,0.271,0.172,0.309	C84.205,34.997,84.228,35,84.25,35c0.109,0,0.209-0.072,0.24-0.182C84.795,33.748,85.779,33,86.883,33	c0.117,0,0.23,0.014,0.342,0.029c0.012,0.002,0.023,0.003,0.035,0.003c0.121,0,0.229-0.092,0.246-0.217	c0.019-0.137-0.077-0.263-0.214-0.281C87.158,32.516,87.022,32.5,86.883,32.5L86.883,32.5z"/><path fill="#fff" d="M15.405,51H5.5C5.224,51,5,50.776,5,50.5S5.224,50,5.5,50h9.905c0.276,0,0.5,0.224,0.5,0.5	S15.682,51,15.405,51z"/><path fill="#fff" d="M18.5,51h-1c-0.276,0-0.5-0.224-0.5-0.5s0.224-0.5,0.5-0.5h1c0.276,0,0.5,0.224,0.5,0.5	S18.777,51,18.5,51z"/><path fill="#fff" d="M23.491,53H14.5c-0.276,0-0.5-0.224-0.5-0.5s0.224-0.5,0.5-0.5h8.991c0.276,0,0.5,0.224,0.5,0.5	S23.767,53,23.491,53z"/><path fill="#ae5ca3" d="M36.546,29h28.409c3.753,0,6.796,3.043,6.796,6.796v28.409c0,3.753-3.043,6.796-6.796,6.796H36.546	c-3.753,0-6.796-3.043-6.796-6.796V35.796C29.75,32.043,32.793,29,36.546,29z"/><path fill="#fff" d="M12.5,53h-1c-0.276,0-0.5-0.224-0.5-0.5s0.224-0.5,0.5-0.5h1c0.276,0,0.5,0.224,0.5,0.5	S12.777,53,12.5,53z"/><path fill="#fff" d="M9.5,53h-2C7.224,53,7,52.776,7,52.5S7.224,52,7.5,52h2c0.276,0,0.5,0.224,0.5,0.5S9.777,53,9.5,53z"/><path fill="#fff" d="M15.5,55h-2c-0.276,0-0.5-0.224-0.5-0.5s0.224-0.5,0.5-0.5h2c0.276,0,0.5,0.224,0.5,0.5	S15.776,55,15.5,55z"/><path fill="#fff" d="M18.5,46c-0.177,0-0.823,0-1,0c-0.276,0-0.5,0.224-0.5,0.5s0.224,0.5,0.5,0.5c0.177,0,0.823,0,1,0	c0.276,0,0.5-0.224,0.5-0.5S18.776,46,18.5,46z"/><path fill="#fff" d="M18.5,48c-0.177,0-4.823,0-5,0c-0.276,0-0.5,0.224-0.5,0.5s0.224,0.5,0.5,0.5c0.177,0,4.823,0,5,0	c0.276,0,0.5-0.224,0.5-0.5S18.776,48,18.5,48z"/><path fill="#fff" d="M23.5,50c-0.177,0-2.823,0-3,0c-0.276,0-0.5,0.224-0.5,0.5s0.224,0.5,0.5,0.5c0.177,0,2.823,0,3,0	c0.276,0,0.5-0.224,0.5-0.5S23.776,50,23.5,50z"/><path fill="#fff" d="M87.5,65h-10c-0.276,0-0.5-0.224-0.5-0.5s0.224-0.5,0.5-0.5h10c0.276,0,0.5,0.224,0.5,0.5	S87.776,65,87.5,65z"/><path fill="#fff" d="M91.5,65h-2c-0.276,0-0.5-0.224-0.5-0.5s0.224-0.5,0.5-0.5h2c0.276,0,0.5,0.224,0.5,0.5	S91.776,65,91.5,65z"/><path fill="#fff" d="M96.5,67h-10c-0.276,0-0.5-0.224-0.5-0.5s0.224-0.5,0.5-0.5h10c0.276,0,0.5,0.224,0.5,0.5	S96.777,67,96.5,67z"/><path fill="#fff" d="M84.5,67h-1c-0.276,0-0.5-0.224-0.5-0.5s0.224-0.5,0.5-0.5h1c0.276,0,0.5,0.224,0.5,0.5	S84.776,67,84.5,67z"/><path fill="#fff" d="M81.375,67H79.5c-0.276,0-0.5-0.224-0.5-0.5s0.224-0.5,0.5-0.5h1.875c0.276,0,0.5,0.224,0.5,0.5	S81.651,67,81.375,67z"/><path fill="#fff" d="M90.5,63h-5c-0.276,0-0.5-0.224-0.5-0.5s0.224-0.5,0.5-0.5h5c0.276,0,0.5,0.224,0.5,0.5	S90.777,63,90.5,63z"/><path fill="#fff" d="M87.5,69h-2c-0.276,0-0.5-0.224-0.5-0.5s0.224-0.5,0.5-0.5h2c0.276,0,0.5,0.224,0.5,0.5	S87.776,69,87.5,69z"/><path fill="#472b29" d="M65,29.4c3.639,0,6.6,2.961,6.6,6.6v28c0,3.639-2.961,6.6-6.6,6.6H37c-3.639,0-6.6-2.961-6.6-6.6V36	c0-3.639,2.961-6.6,6.6-6.6H65 M65,28H37c-4.418,0-8,3.582-8,8v28c0,4.418,3.582,8,8,8h28c4.418,0,8-3.582,8-8V36	C73,31.582,69.418,28,65,28L65,28z"/><path fill="#472b29" d="M69.5,41c-0.276,0-0.5-0.224-0.5-0.5v-4c0-2.481-2.019-4.5-4.5-4.5h-11c-0.276,0-0.5-0.224-0.5-0.5	s0.224-0.5,0.5-0.5h11c3.032,0,5.5,2.467,5.5,5.5v4C70,40.776,69.776,41,69.5,41z"/><path fill="#472b29" d="M69.5,57c-0.276,0-0.5-0.224-0.5-0.5v-9.016c0-0.276,0.224-0.5,0.5-0.5s0.5,0.224,0.5,0.5V56.5	C70,56.776,69.776,57,69.5,57z"/><path fill="#472b29" d="M64.5,69h-27c-3.032,0-5.5-2.467-5.5-5.5v-27c0-3.033,2.468-5.5,5.5-5.5h7c0.276,0,0.5,0.224,0.5,0.5	S44.776,32,44.5,32h-7c-2.481,0-4.5,2.019-4.5,4.5v27c0,2.481,2.019,4.5,4.5,4.5h27c2.481,0,4.5-2.019,4.5-4.5v-4	c0-0.276,0.224-0.5,0.5-0.5s0.5,0.224,0.5,0.5v4C70,66.533,67.532,69,64.5,69z"/><path fill="#472b29" d="M50.5,32h-3c-0.276,0-0.5-0.224-0.5-0.5s0.224-0.5,0.5-0.5h3c0.276,0,0.5,0.224,0.5,0.5	S50.776,32,50.5,32z"/><path fill="#fdfcef" d="M39.5,73.5c0,0,1.567,0,3.5,0s3.5-1.567,3.5-3.5c0-1.781-1.335-3.234-3.055-3.455	C43.473,66.366,43.5,66.187,43.5,66c0-1.933-1.567-3.5-3.5-3.5c-1.032,0-1.95,0.455-2.59,1.165c-0.384-1.808-1.987-3.165-3.91-3.165	c-2.209,0-4,1.791-4,4c0,0.191,0.03,0.374,0.056,0.558C29.128,64.714,28.592,64.5,28,64.5c-1.228,0-2.245,0.887-2.455,2.055	C25.366,66.527,25.187,66.5,25,66.5c-1.933,0-3.5,1.567-3.5,3.5s1.567,3.5,3.5,3.5s7.5,0,7.5,0V74h7V73.5z"/><path fill="#472b29" d="M41.25,69C41.112,69,41,68.888,41,68.75c0-1.223,0.995-2.218,2.218-2.218	c0.034,0.009,0.737-0.001,1.244,0.136c0.133,0.036,0.212,0.173,0.176,0.306c-0.036,0.134-0.173,0.213-0.306,0.176	c-0.444-0.12-1.1-0.12-1.113-0.118c-0.948,0-1.719,0.771-1.719,1.718C41.5,68.888,41.388,69,41.25,69z"/><circle cx="34.5" cy="73.5" r=".5" fill="#472b29"/><path fill="#472b29" d="M43,74h-3.5c-0.276,0-0.5-0.224-0.5-0.5s0.224-0.5,0.5-0.5H43c1.654,0,3-1.346,3-3	c0-1.496-1.125-2.768-2.618-2.959c-0.134-0.018-0.255-0.088-0.336-0.196s-0.115-0.244-0.094-0.377C42.975,66.314,43,66.16,43,66	c0-1.654-1.346-3-3-3c-0.85,0-1.638,0.355-2.219,1c-0.125,0.139-0.321,0.198-0.5,0.148c-0.182-0.049-0.321-0.195-0.36-0.379	C36.58,62.165,35.141,61,33.5,61c-1.93,0-3.5,1.57-3.5,3.5c0,0.143,0.021,0.28,0.041,0.418c0.029,0.203-0.063,0.438-0.242,0.54	s-0.396,0.118-0.556-0.01C28.878,65.155,28.449,65,28,65c-0.966,0-1.792,0.691-1.963,1.644c-0.048,0.267-0.296,0.446-0.569,0.405	C25.314,67.025,25.16,67,25,67c-1.654,0-3,1.346-3,3s1.346,3,3,3h7.5c0.276,0,0.5,0.224,0.5,0.5S32.776,74,32.5,74H25	c-2.206,0-4-1.794-4-4s1.794-4,4-4c0.059,0,0.116,0.002,0.174,0.006C25.588,64.82,26.711,64,28,64c0.349,0,0.689,0.061,1.011,0.18	C29.176,61.847,31.126,60,33.5,60c1.831,0,3.466,1.127,4.153,2.774C38.333,62.276,39.155,62,40,62c2.206,0,4,1.794,4,4	c0,0.048-0.001,0.095-0.004,0.142C45.739,66.59,47,68.169,47,70C47,72.206,45.206,74,43,74z"/><path fill="#472b29" d="M37.5,73c-0.159,0-0.841,0-1,0c-0.276,0-0.5,0.224-0.5,0.5s0.224,0.5,0.5,0.5c0.159,0,0.841,0,1,0	c0.276,0,0.5-0.224,0.5-0.5S37.776,73,37.5,73z"/><path fill="#fdfcef" d="M55,63.5c-0.828,0-1.5-0.672-1.5-1.5v-2.708c0-0.438-0.355-0.792-0.792-0.792H50	c-2.485,0-4.5-2.015-4.5-4.5v-5.912c0-0.325-0.263-0.588-0.588-0.588H43c-0.828,0-1.5-0.672-1.5-1.5v-1.5h9.479	c0.502,0,0.751-0.609,0.393-0.96l-5.929-5.823c-0.123-0.121-0.174-0.287-0.141-0.455c0.034-0.169,0.145-0.302,0.305-0.366	l1.621-0.648c0.297-0.118,0.608-0.179,0.928-0.179c0.714,0,1.396,0.307,1.869,0.84l6.743,7.592H60c0.275,0,0.5,0.225,0.5,0.5v2.5	h-3.412c-0.325,0-0.588,0.263-0.588,0.588V63.5H55z M48.5,53.5c0,1.105,0.895,2,2,2h1c1.105,0,2-0.895,2-2v-5.181	c0-0.452-0.367-0.819-0.819-0.819h-3.362c-0.452,0-0.819,0.367-0.819,0.819V53.5z"/><path fill="#472b29" d="M48.156,36.318c0.643,0,1.257,0.276,1.683,0.756l6.594,7.424c0.142,0.16,0.346,0.252,0.561,0.252H60	c0.138,0,0.25,0.112,0.25,0.25v2.25H57c-0.414,0-0.75,0.336-0.75,0.75v15.25H55c-0.689,0-1.25-0.561-1.25-1.25v-3	c0-0.414-0.336-0.75-0.75-0.75h-3c-2.344,0-4.25-1.907-4.25-4.25v-6c0-0.414-0.336-0.75-0.75-0.75h-2c-0.689,0-1.25-0.561-1.25-1.25	v-1.25h9.377c0.305,0,0.579-0.184,0.694-0.466s0.049-0.606-0.168-0.819l-6.035-5.927c-0.084-0.082-0.08-0.178-0.07-0.228	c0.01-0.049,0.043-0.139,0.152-0.183l1.621-0.648C47.588,36.372,47.869,36.318,48.156,36.318L48.156,36.318 M50.5,55.75h1	c1.241,0,2.25-1.009,2.25-2.25V48c0-0.414-0.336-0.75-0.75-0.75h-4c-0.414,0-0.75,0.336-0.75,0.75v5.5	C48.25,54.741,49.259,55.75,50.5,55.75 M48.156,35.568c-0.374,0-0.751,0.07-1.113,0.215l-1.621,0.648	c-0.67,0.268-0.844,1.136-0.329,1.642L51.127,44H41.5c-0.276,0-0.5,0.224-0.5,0.5V46c0,1.105,0.896,2,2,2h2v6c0,2.761,2.239,5,5,5h3	v3c0,1.105,0.896,2,2,2h1.5c0.276,0,0.5-0.224,0.5-0.5V48h3.5c0.276,0,0.5-0.224,0.5-0.5V45c0-0.552-0.448-1-1-1h-3.007L50.4,36.576	C49.819,35.922,48.997,35.568,48.156,35.568L48.156,35.568z M50.5,55c-0.828,0-1.5-0.672-1.5-1.5V48h4v5.5	c0,0.828-0.672,1.5-1.5,1.5H50.5L50.5,55z"/></svg>